<?xml version="1.0" encoding="utf-8"?>
<!-- Generator: Adobe Illustrator 22.1.0, SVG Export Plug-In . SVG Version: 6.00 Build 0)  -->
<svg version="1.1" id="Capa_1" xmlns="http://www.w3.org/2000/svg" xmlns:xlink="http://www.w3.org/1999/xlink" x="0px" y="0px"
	 viewBox="0 0 512 512" style="enable-background:new 0 0 512 512;" xml:space="preserve">
<style type="text/css">
	.st0{fill:#762D93;}
</style>
<g>
	<path class="st0" d="M316,306c0-33.1-26.9-60-60-60s-60,26.9-60,60s26.9,60,60,60S316,339.1,316,306z M256,346
		c-22.1,0-40-17.9-40-40s17.9-40,40-40s40,17.9,40,40S278.1,346,256,346z"/>
	<path class="st0" d="M152,306c0-33.1-26.9-60-60-60s-60,26.9-60,60s26.9,60,60,60S152,339.1,152,306z M92,346
		c-22.1,0-40-17.9-40-40s17.9-40,40-40s40,17.9,40,40S114.1,346,92,346z"/>
	<path class="st0" d="M480,306c0-33.1-26.9-60-60-60s-60,26.9-60,60s26.9,60,60,60S480,339.1,480,306z M420,346
		c-22.1,0-40-17.9-40-40s17.9-40,40-40s40,17.9,40,40S442.1,346,420,346z"/>
	<path class="st0" d="M420,366c-35.9,0-66.9,20.8-82,49.5c-15-28.6-46-49.5-82-49.5c-35.9,0-66.9,20.8-82,49.5
		c-15-28.6-46-49.5-82-49.5c-49.9,0-92,40.3-92,90v46c0,5.5,4.5,10,10,10h492c5.5,0,10-4.5,10-10v-46C512,406.3,469.9,366,420,366z
		 M256,386c39,0,72,32.1,72,70v36H184v-36C184,418.1,217,386,256,386z M20,456c0-37.9,33-70,72-70s72,32.1,72,70v36H20V456z
		 M492,492H348v-36c0-37.9,33-70,72-70s72,32.1,72,70V492z"/>
	<path class="st0" d="M256,60c-16.5,0-30,13.5-30,30s13.5,30,30,30s30-13.5,30-30S272.5,60,256,60z M256,100c-5.5,0-10-4.5-10-10
		s4.5-10,10-10s10,4.5,10,10S261.5,100,256,100z"/>
	<path class="st0" d="M146,90c0,16.5,13.5,30,30,30s30-13.5,30-30s-13.5-30-30-30S146,73.5,146,90z M186,90c0,5.5-4.5,10-10,10
		s-10-4.5-10-10s4.5-10,10-10S186,84.5,186,90z"/>
	<path class="st0" d="M366,90c0-16.5-13.5-30-30-30s-30,13.5-30,30s13.5,30,30,30S366,106.5,366,90z M326,90c0-5.5,4.5-10,10-10
		s10,4.5,10,10s-4.5,10-10,10S326,95.5,326,90z"/>
	<circle class="st0" cx="256" cy="10" r="10"/>
	<path class="st0" d="M266.8,166L256,190.9L245.2,166c-1.6-3.7-5.2-6-9.2-6H136c-38.6,0-70-31.4-70-70s31.4-70,70-70h75
		c5.5,0,10-4.5,10-10s-4.5-10-10-10h-75C86.4,0,46,40.4,46,90s40.4,90,90,90h93.4l17.4,40c1.6,3.7,5.2,6,9.2,6c4,0,7.6-2.4,9.2-6
		l17.4-40H376c49.6,0,90-40.4,90-90S425.6,0,376,0h-75c-5.5,0-10,4.5-10,10s4.5,10,10,10h75c38.6,0,70,31.4,70,70s-31.4,70-70,70
		H276C272,160,268.4,162.4,266.8,166L266.8,166z"/>
</g>
</svg>
